<svg width="161" height="161" viewBox="0 0 161 161" fill="none" xmlns="http://www.w3.org/2000/svg">
    <path d="M147.251 120.75H13.752C17.1128 86.8494 45.7138 60.375 80.4999 60.375C115.283 60.375 143.887 86.8494 147.251 120.75V120.75Z" stroke="white" stroke-width="4" stroke-linejoin="round" />
    <path d="M46.9587 67.0832L33.542 43.604" stroke="white" stroke-width="4" stroke-linecap="round" stroke-linejoin="round" />
    <path d="M110.688 67.0832L124.104 43.604" stroke="white" stroke-width="4" stroke-linecap="round" stroke-linejoin="round" />
    <path d="M50.3128 103.979C54.0177 103.979 57.0212 100.976 57.0212 97.2708C57.0212 93.5659 54.0177 90.5625 50.3128 90.5625C46.6079 90.5625 43.6045 93.5659 43.6045 97.2708C43.6045 100.976 46.6079 103.979 50.3128 103.979Z" fill="white" />
    <path d="M110.688 103.979C114.393 103.979 117.396 100.976 117.396 97.2708C117.396 93.5659 114.393 90.5625 110.688 90.5625C106.983 90.5625 103.979 93.5659 103.979 97.2708C103.979 100.976 106.983 103.979 110.688 103.979Z" fill="white" />
</svg>
